<svg version="1.1" xmlns="http://www.w3.org/2000/svg" viewBox="0 0 123 193.22727272727275" width="123" height="193.22727272727275">
  <!-- svg-source:excalidraw -->
  
  <defs>
    <style class="style-fonts">
      @font-face {
        font-family: "Virgil";
        src: url("https://excalidraw.com/Virgil.woff2");
      }
      @font-face {
        font-family: "Cascadia";
        src: url("https://excalidraw.com/Cascadia.woff2");
      }
    </style>
  </defs>
  <rect x="0" y="0" width="123" height="193.22727272727275" fill="#ffffff"></rect><g stroke-linecap="round" transform="translate(10 10) rotate(0 44.86742424242402 77.6401515151515)"><path d="M22.43 0 M22.43 0 C37.31 0, 52.19 0, 67.3 0 M22.43 0 C35.78 0, 49.13 0, 67.3 0 M67.3 0 C82.26 0, 89.73 7.48, 89.73 22.43 M67.3 0 C82.26 0, 89.73 7.48, 89.73 22.43 M89.73 22.43 C89.73 64.68, 89.73 106.93, 89.73 132.85 M89.73 22.43 C89.73 45.62, 89.73 68.8, 89.73 132.85 M89.73 132.85 C89.73 147.8, 82.26 155.28, 67.3 155.28 M89.73 132.85 C89.73 147.8, 82.26 155.28, 67.3 155.28 M67.3 155.28 C57.81 155.28, 48.31 155.28, 22.43 155.28 M67.3 155.28 C50.06 155.28, 32.82 155.28, 22.43 155.28 M22.43 155.28 C7.48 155.28, 0 147.8, 0 132.85 M22.43 155.28 C7.48 155.28, 0 147.8, 0 132.85 M0 132.85 C0 108.54, 0 84.24, 0 22.43 M0 132.85 C0 89.35, 0 45.86, 0 22.43 M0 22.43 C0 7.48, 7.48 0, 22.43 0 M0 22.43 C0 7.48, 7.48 0, 22.43 0" stroke="#000000" stroke-width="1" fill="none"></path></g><g stroke-linecap="round" transform="translate(23.265151515151956 27.946969696969745) rotate(0 44.86742424242402 77.6401515151515)"><path d="M22.43 0 L72.56 0.35 L80.97 3.15 L84.13 5.61 L88.33 12.62 L89.73 22.43 L89.38 138.1 L86.58 146.52 L80.97 152.13 L77.12 153.88 L67.3 155.28 L17.18 154.93 L8.76 152.13 L3.15 146.52 L1.4 142.66 L0 132.85 L0.35 17.18 L3.15 8.76 L8.76 3.15 L17.18 0.35 L22.43 0" stroke="none" stroke-width="0" fill="white"></path><path d="M22.43 0 M22.43 0 C31.93 0, 41.42 0, 67.3 0 M22.43 0 C39.68 0, 56.92 0, 67.3 0 M67.3 0 C82.26 0, 89.73 7.48, 89.73 22.43 M67.3 0 C82.26 0, 89.73 7.48, 89.73 22.43 M89.73 22.43 C89.73 46.74, 89.73 71.04, 89.73 132.85 M89.73 22.43 C89.73 65.93, 89.73 109.42, 89.73 132.85 M89.73 132.85 C89.73 147.8, 82.26 155.28, 67.3 155.28 M89.73 132.85 C89.73 147.8, 82.26 155.28, 67.3 155.28 M67.3 155.28 C55.65 155.28, 43.99 155.28, 22.43 155.28 M67.3 155.28 C51.05 155.28, 34.79 155.28, 22.43 155.28 M22.43 155.28 C7.48 155.28, 0 147.8, 0 132.85 M22.43 155.28 C7.48 155.28, 0 147.8, 0 132.85 M0 132.85 C0 107.23, 0 81.61, 0 22.43 M0 132.85 C0 92.78, 0 52.72, 0 22.43 M0 22.43 C0 7.48, 7.48 0, 22.43 0 M0 22.43 C0 7.48, 7.48 0, 22.43 0" stroke="#000000" stroke-width="1" fill="none"></path></g></svg>